# xmcd CD database file
#
# Track frame offsets:
#	182
#	14217
#	26762
#	48037
#	60360
#	74297
#	88412
#	105735
#	122717
#	137015
#
# Disc length: 2066 seconds
#
# Revision: 3
# Processed by: cddbd v1.5.2PL0 Copyright (c) Steve Scherf et al.
# Submitted via: CDex 1.79
#
DISCID=8a08100a
DTITLE=Jim Matt - All My Wild Oats
DYEAR=1997
DGENRE=Country
TTITLE0=Better Place To Live
TTITLE1=Hillbilly Darlin'
TTITLE2=Wild Oats
TTITLE3=Vince Gill, Ricky Skaggs and Me
TTITLE4=Old Fashioned Girl
TTITLE5=Fragile
TTITLE6=This Old Guitar
TTITLE7=Old Fella
TTITLE8=Lucky 13
TTITLE9=Dying Rose
EXTD=YEAR: 1997
EXTT0=
EXTT1=
EXTT2=
EXTT3=
EXTT4=
EXTT5=
EXTT6=
EXTT7=
EXTT8=
EXTT9=
PLAYORDER=
